<?xml version="1.0" encoding="UTF-8"?>
<svg width="65px" height="65px" viewBox="0 0 65 65" version="1.1" xmlns="http://www.w3.org/2000/svg" xmlns:xlink="http://www.w3.org/1999/xlink">
    <!-- Generator: Sketch 42 (36781) - http://www.bohemiancoding.com/sketch -->
    <title>Agenda@2x</title>
    <desc>Created with Sketch.</desc>
    <defs></defs>
    <g id="HomePage" stroke="none" stroke-width="1" fill="none" fill-rule="evenodd">
        <g id="Desktop-HD" transform="translate(-688.000000, -1470.000000)">
            <g id="Group-4" transform="translate(-319.000000, -474.000000)">
                <g id="Agenda" transform="translate(1007.000000, 1944.000000)">
                    <path d="M32.5,65 C50.4492544,65 65,50.4492544 65,32.5 C65,14.5507456 50.4492544,0 32.5,0 C14.5507456,0 0,14.5507456 0,32.5 C0,50.4492544 14.5507456,65 32.5,65 Z" id="Oval-9" fill="#B9F4BC"></path>
                    <path d="M45.6181818,25.75 L19.9727273,25.75 L19.9727273,23.8125 C19.9727273,22.743 20.8565091,21.875 21.9454545,21.875 L25.8909091,21.875 L25.8909091,22.84375 C25.8909091,23.3794688 26.3318136,23.8125 26.8772727,23.8125 C27.4227318,23.8125 27.8636364,23.3794688 27.8636364,22.84375 L27.8636364,21.875 L37.7272727,21.875 L37.7272727,22.84375 C37.7272727,23.3794688 38.1681773,23.8125 38.7136364,23.8125 C39.2590955,23.8125 39.7,23.3794688 39.7,22.84375 L39.7,21.875 L43.6454545,21.875 C44.7344,21.875 45.6181818,22.743 45.6181818,23.8125 L45.6181818,25.75 L45.6181818,25.75 Z M39.7,19.9375 L39.7,18.96875 C39.7,18.434 39.2590955,18 38.7136364,18 C38.1681773,18 37.7272727,18.434 37.7272727,18.96875 L37.7272727,19.9375 L27.8636364,19.9375 L27.8636364,18.96875 C27.8636364,18.434 27.4227318,18 26.8772727,18 C26.3318136,18 25.8909091,18.434 25.8909091,18.96875 L25.8909091,19.9375 L21.9454545,19.9375 C19.7665773,19.9375 18,21.6725312 18,23.8125 L18,45.125 C18,47.2649687 19.7665773,49 21.9454545,49 L43.6454545,49 C45.8243318,49 47.5909091,47.2649687 47.5909091,45.125 L47.5909091,23.8125 C47.5909091,21.6725312 45.8243318,19.9375 43.6454545,19.9375 L39.7,19.9375 Z" id="Fill-168" stroke="#24B47E" stroke-width="0.5" fill="#24B47E"></path>
                </g>
            </g>
        </g>
    </g>
</svg>