<?xml version="1.0" encoding="UTF-8"?>
<svg width="40px" height="53px" viewBox="0 0 40 53" version="1.1" xmlns="http://www.w3.org/2000/svg" xmlns:xlink="http://www.w3.org/1999/xlink">
    <!-- Generator: Sketch 42 (36781) - http://www.bohemiancoding.com/sketch -->
    <title>Page 1@2x</title>
    <desc>Created with Sketch.</desc>
    <defs></defs>
    <g id="HomePage" stroke="none" stroke-width="1" fill="none" fill-rule="evenodd">
        <g id="Desktop-HD" transform="translate(-222.000000, -23.000000)" fill="#FFFFFF">
            <g id="Page-1" transform="translate(222.000000, 23.000000)">
                <path d="M33.1790095,37.6494672 C32.6658578,38.2173166 31.936314,38.541425 31.1707848,38.541425 L29.5212145,38.541425 C28.1175444,38.541425 26.9468197,37.4685806 26.8251891,36.0701883 L26.2434253,29.398497 L26.0198361,27.3698806 L23.1889854,34.2219787 C22.7708351,35.2346076 21.783396,35.8950594 20.6877609,35.8950594 L19.0722567,35.8950594 C17.9641466,35.8950594 16.968071,35.2194937 16.5580775,34.1900717 L13.9426593,27.6244173 L13.7557752,29.3087734 L13.1046796,36.0936988 C12.9717735,37.4817752 11.8053671,38.541425 10.4108133,38.541425 L8.82961521,38.541425 C8.06120718,38.541425 7.32902445,38.2149176 6.81563288,37.6432297 C6.30272112,37.0715418 6.05634115,36.3086515 6.13886764,35.5445617 L8.51054475,13.5812388 C8.65904446,12.2070767 9.81897354,11.1654196 11.2012923,11.1654196 L13.229189,11.1654196 C14.3639283,11.1654196 15.3782365,11.8733722 15.7695176,12.9387796 L16.9947002,16.2736657 L19.9918034,23.8150039 L23.2225717,15.9718682 L24.3772229,12.9152691 C24.7752214,11.8623366 25.7832921,11.1654196 26.9089151,11.1654196 L28.9365719,11.1654196 C30.325368,11.1654196 31.4886557,12.2164329 31.6292387,13.5980319 L33.8634516,35.5613549 C33.9407002,36.3228058 33.692401,37.0816177 33.1790095,37.6494672 M35.4547255,0.00659001685 L4.07402596,1.72621186 C1.78871379,1.85144101 0,3.7409139 0,6.0293448 L0,42.4976588 C0,44.8434264 1.87675804,46.7588088 4.22204587,46.8063095 L9.97802896,46.9236219 L22.7595597,52.1630947 C23.6512777,52.5284663 24.4515928,51.268258 24.1315627,50.0025319 L23.4219308,47.1973508 L35.6029853,47.4451701 C38.0168853,47.4943502 40.0004,45.5511391 40.0004,43.1365194 L40.0004,4.30972296 C40.0004,1.83680696 37.9238031,-0.12871505 35.4547255,0.00659001685" id="Fill-1"></path>
            </g>
        </g>
    </g>
</svg>